<svg width="168" height="24" viewBox="0 0 168 24" fill="none" xmlns="http://www.w3.org/2000/svg">
<g clip-path="url(#clip0_315_1181)">
<path d="M24 12C24 5.37258 18.6274 0 12 0C5.37258 0 0 5.37258 0 12C0 17.9895 4.3882 22.954 10.125 23.8542V15.4687H7.07812V12H10.125V9.35625C10.125 6.34875 11.9166 4.6875 14.6576 4.6875C15.9701 4.6875 17.3438 4.92187 17.3438 4.92187V7.875H15.8306C14.34 7.875 13.875 8.80008 13.875 9.75V12H17.2031L16.6711 15.4687H13.875V23.8542C19.6118 22.954 24 17.9895 24 12Z" fill="white"/>
</g>
<path d="M55.5502 21.75C64.6045 21.75 69.5583 14.2467 69.5583 7.74186C69.5583 7.53092 69.5536 7.3153 69.5442 7.10436C70.5079 6.40746 71.3395 5.54425 72 4.5553C71.1025 4.9546 70.1496 5.21538 69.1739 5.32874C70.2013 4.71291 70.9705 3.74547 71.3391 2.60577C70.3726 3.17856 69.3156 3.58261 68.2134 3.80061C67.4708 3.01156 66.489 2.48912 65.4197 2.31405C64.3504 2.13899 63.2532 2.32105 62.2977 2.8321C61.3423 3.34314 60.5818 4.15471 60.1338 5.14131C59.6859 6.12792 59.5754 7.23462 59.8195 8.2903C57.8625 8.19209 55.9479 7.6837 54.2 6.7981C52.452 5.91249 50.9097 4.66944 49.673 3.14952C49.0444 4.23324 48.8521 5.51565 49.135 6.73609C49.418 7.95654 50.1551 9.02345 51.1964 9.71999C50.4146 9.69517 49.65 9.48468 48.9656 9.10592V9.16686C48.9649 10.3041 49.3581 11.4066 50.0783 12.2868C50.7985 13.167 51.8013 13.7706 52.9162 13.995C52.1921 14.1931 51.432 14.222 50.6948 14.0794C51.0095 15.0574 51.6216 15.9129 52.4458 16.5263C53.27 17.1398 54.2651 17.4806 55.2923 17.5012C53.5484 18.8711 51.3942 19.6141 49.1766 19.6106C48.7833 19.61 48.3904 19.5859 48 19.5384C50.2529 20.9837 52.8735 21.7514 55.5502 21.75Z" fill="white"/>
<g clip-path="url(#clip1_315_1181)">
<path d="M108 2.16094C111.206 2.16094 111.586 2.175 112.847 2.23125C114.019 2.28281 114.652 2.47969 115.073 2.64375C115.631 2.85938 116.034 3.12188 116.452 3.53906C116.873 3.96094 117.131 4.35938 117.347 4.91719C117.511 5.33906 117.708 5.97656 117.759 7.14375C117.816 8.40938 117.83 8.78906 117.83 11.9906C117.83 15.1969 117.816 15.5766 117.759 16.8375C117.708 18.0094 117.511 18.6422 117.347 19.0641C117.131 19.6219 116.869 20.025 116.452 20.4422C116.03 20.8641 115.631 21.1219 115.073 21.3375C114.652 21.5016 114.014 21.6984 112.847 21.75C111.581 21.8063 111.202 21.8203 108 21.8203C104.794 21.8203 104.414 21.8063 103.153 21.75C101.981 21.6984 101.348 21.5016 100.927 21.3375C100.369 21.1219 99.9656 20.8594 99.5484 20.4422C99.1266 20.0203 98.8688 19.6219 98.6531 19.0641C98.4891 18.6422 98.2922 18.0047 98.2406 16.8375C98.1844 15.5719 98.1703 15.1922 98.1703 11.9906C98.1703 8.78438 98.1844 8.40469 98.2406 7.14375C98.2922 5.97188 98.4891 5.33906 98.6531 4.91719C98.8688 4.35938 99.1313 3.95625 99.5484 3.53906C99.9703 3.11719 100.369 2.85938 100.927 2.64375C101.348 2.47969 101.986 2.28281 103.153 2.23125C104.414 2.175 104.794 2.16094 108 2.16094ZM108 0C104.742 0 104.334 0.0140625 103.055 0.0703125C101.78 0.126563 100.903 0.332813 100.144 0.628125C99.3516 0.9375 98.6813 1.34531 98.0156 2.01563C97.3453 2.68125 96.9375 3.35156 96.6281 4.13906C96.3328 4.90313 96.1266 5.775 96.0703 7.05C96.0141 8.33438 96 8.74219 96 12C96 15.2578 96.0141 15.6656 96.0703 16.9453C96.1266 18.2203 96.3328 19.0969 96.6281 19.8563C96.9375 20.6484 97.3453 21.3188 98.0156 21.9844C98.6813 22.65 99.3516 23.0625 100.139 23.3672C100.903 23.6625 101.775 23.8688 103.05 23.925C104.33 23.9813 104.738 23.9953 107.995 23.9953C111.253 23.9953 111.661 23.9813 112.941 23.925C114.216 23.8688 115.092 23.6625 115.852 23.3672C116.639 23.0625 117.309 22.65 117.975 21.9844C118.641 21.3188 119.053 20.6484 119.358 19.8609C119.653 19.0969 119.859 18.225 119.916 16.95C119.972 15.6703 119.986 15.2625 119.986 12.0047C119.986 8.74688 119.972 8.33906 119.916 7.05938C119.859 5.78438 119.653 4.90781 119.358 4.14844C119.063 3.35156 118.655 2.68125 117.984 2.01563C117.319 1.35 116.648 0.9375 115.861 0.632813C115.097 0.3375 114.225 0.13125 112.95 0.075C111.666 0.0140625 111.258 0 108 0Z" fill="white"/>
<path d="M108 5.83594C104.597 5.83594 101.836 8.59688 101.836 12C101.836 15.4031 104.597 18.1641 108 18.1641C111.403 18.1641 114.164 15.4031 114.164 12C114.164 8.59688 111.403 5.83594 108 5.83594ZM108 15.9984C105.792 15.9984 104.002 14.2078 104.002 12C104.002 9.79219 105.792 8.00156 108 8.00156C110.208 8.00156 111.998 9.79219 111.998 12C111.998 14.2078 110.208 15.9984 108 15.9984Z" fill="white"/>
<path d="M115.847 5.59214C115.847 6.38902 115.2 7.0312 114.408 7.0312C113.611 7.0312 112.969 6.38433 112.969 5.59214C112.969 4.79526 113.616 4.15308 114.408 4.15308C115.2 4.15308 115.847 4.79995 115.847 5.59214Z" fill="white"/>
</g>
<g clip-path="url(#clip2_315_1181)">
<path d="M166.223 0H145.772C144.792 0 144 0.773438 144 1.72969V22.2656C144 23.2219 144.792 24 145.772 24H166.223C167.203 24 168 23.2219 168 22.2703V1.72969C168 0.773438 167.203 0 166.223 0ZM151.12 20.4516H147.558V8.99531H151.12V20.4516ZM149.339 7.43438C148.195 7.43438 147.272 6.51094 147.272 5.37187C147.272 4.23281 148.195 3.30937 149.339 3.30937C150.478 3.30937 151.402 4.23281 151.402 5.37187C151.402 6.50625 150.478 7.43438 149.339 7.43438ZM164.452 20.4516H160.894V14.8828C160.894 13.5562 160.87 11.8453 159.042 11.8453C157.191 11.8453 156.909 13.2937 156.909 14.7891V20.4516H153.356V8.99531H156.769V10.5609H156.816C157.289 9.66094 158.452 8.70938 160.181 8.70938C163.786 8.70938 164.452 11.0813 164.452 14.1656V20.4516Z" fill="white"/>
</g>
<defs>
<clipPath id="clip0_315_1181">
<rect width="24" height="24" fill="white"/>
</clipPath>
<clipPath id="clip1_315_1181">
<rect width="24" height="24" fill="white" transform="translate(96)"/>
</clipPath>
<clipPath id="clip2_315_1181">
<rect width="24" height="24" fill="white" transform="translate(144)"/>
</clipPath>
</defs>
</svg>
