<svg width="328" height="68" viewBox="0 0 328 68" fill="none" xmlns="http://www.w3.org/2000/svg">
<g clip-path="url(#clip0_266_7982)">
<path d="M104 12C104 5.37258 98.6274 0 92 0C85.3726 0 80 5.37258 80 12C80 17.9895 84.3882 22.954 90.125 23.8542V15.4687H87.0781V12H90.125V9.35625C90.125 6.34875 91.9166 4.6875 94.6576 4.6875C95.9701 4.6875 97.3438 4.92187 97.3438 4.92187V7.875H95.8306C94.34 7.875 93.875 8.80008 93.875 9.75V12H97.2031L96.6711 15.4687H93.875V23.8542C99.6118 22.954 104 17.9895 104 12Z" fill="#1D1E25"/>
</g>
<path d="M135.55 21.7502C144.605 21.7502 149.558 14.2469 149.558 7.74211C149.558 7.53117 149.554 7.31554 149.544 7.1046C150.508 6.40771 151.339 5.5445 152 4.55554C151.103 4.95484 150.15 5.21563 149.174 5.32898C150.201 4.71315 150.971 3.74572 151.339 2.60601C150.373 3.1788 149.316 3.58286 148.213 3.80085C147.471 3.01181 146.489 2.48936 145.42 2.3143C144.35 2.13923 143.253 2.32129 142.298 2.83234C141.342 3.34339 140.582 4.15495 140.134 5.14156C139.686 6.12816 139.575 7.23486 139.82 8.29054C137.862 8.19233 135.948 7.68395 134.2 6.79834C132.452 5.91274 130.91 4.66968 129.673 3.14976C129.044 4.23349 128.852 5.51589 129.135 6.73634C129.418 7.95678 130.155 9.02369 131.196 9.72023C130.415 9.69541 129.65 9.48492 128.966 9.10617V9.1671C128.965 10.3044 129.358 11.4068 130.078 12.287C130.799 13.1672 131.801 13.7708 132.916 13.9952C132.192 14.1934 131.432 14.2222 130.695 14.0796C131.009 15.0577 131.622 15.9131 132.446 16.5266C133.27 17.14 134.265 17.4808 135.292 17.5015C133.548 18.8714 131.394 19.6144 129.177 19.6109C128.783 19.6103 128.39 19.5861 128 19.5387C130.253 20.984 132.874 21.7516 135.55 21.7502Z" fill="#1D1E25"/>
<g clip-path="url(#clip1_266_7982)">
<path d="M188 2.16094C191.206 2.16094 191.586 2.175 192.847 2.23125C194.019 2.28281 194.652 2.47969 195.073 2.64375C195.631 2.85938 196.034 3.12188 196.452 3.53906C196.873 3.96094 197.131 4.35938 197.347 4.91719C197.511 5.33906 197.708 5.97656 197.759 7.14375C197.816 8.40938 197.83 8.78906 197.83 11.9906C197.83 15.1969 197.816 15.5766 197.759 16.8375C197.708 18.0094 197.511 18.6422 197.347 19.0641C197.131 19.6219 196.869 20.025 196.452 20.4422C196.03 20.8641 195.631 21.1219 195.073 21.3375C194.652 21.5016 194.014 21.6984 192.847 21.75C191.581 21.8063 191.202 21.8203 188 21.8203C184.794 21.8203 184.414 21.8063 183.153 21.75C181.981 21.6984 181.348 21.5016 180.927 21.3375C180.369 21.1219 179.966 20.8594 179.548 20.4422C179.127 20.0203 178.869 19.6219 178.653 19.0641C178.489 18.6422 178.292 18.0047 178.241 16.8375C178.184 15.5719 178.17 15.1922 178.17 11.9906C178.17 8.78438 178.184 8.40469 178.241 7.14375C178.292 5.97188 178.489 5.33906 178.653 4.91719C178.869 4.35938 179.131 3.95625 179.548 3.53906C179.97 3.11719 180.369 2.85938 180.927 2.64375C181.348 2.47969 181.986 2.28281 183.153 2.23125C184.414 2.175 184.794 2.16094 188 2.16094ZM188 0C184.742 0 184.334 0.0140625 183.055 0.0703125C181.78 0.126563 180.903 0.332813 180.144 0.628125C179.352 0.9375 178.681 1.34531 178.016 2.01563C177.345 2.68125 176.938 3.35156 176.628 4.13906C176.333 4.90313 176.127 5.775 176.07 7.05C176.014 8.33438 176 8.74219 176 12C176 15.2578 176.014 15.6656 176.07 16.9453C176.127 18.2203 176.333 19.0969 176.628 19.8563C176.938 20.6484 177.345 21.3188 178.016 21.9844C178.681 22.65 179.352 23.0625 180.139 23.3672C180.903 23.6625 181.775 23.8688 183.05 23.925C184.33 23.9813 184.738 23.9953 187.995 23.9953C191.253 23.9953 191.661 23.9813 192.941 23.925C194.216 23.8688 195.092 23.6625 195.852 23.3672C196.639 23.0625 197.309 22.65 197.975 21.9844C198.641 21.3188 199.053 20.6484 199.358 19.8609C199.653 19.0969 199.859 18.225 199.916 16.95C199.972 15.6703 199.986 15.2625 199.986 12.0047C199.986 8.74688 199.972 8.33906 199.916 7.05938C199.859 5.78438 199.653 4.90781 199.358 4.14844C199.063 3.35156 198.655 2.68125 197.984 2.01563C197.319 1.35 196.648 0.9375 195.861 0.632813C195.097 0.3375 194.225 0.13125 192.95 0.075C191.666 0.0140625 191.258 0 188 0Z" fill="#1D1E25"/>
<path d="M188 5.83594C184.597 5.83594 181.836 8.59688 181.836 12C181.836 15.4031 184.597 18.1641 188 18.1641C191.403 18.1641 194.164 15.4031 194.164 12C194.164 8.59688 191.403 5.83594 188 5.83594ZM188 15.9984C185.792 15.9984 184.002 14.2078 184.002 12C184.002 9.79219 185.792 8.00156 188 8.00156C190.208 8.00156 191.998 9.79219 191.998 12C191.998 14.2078 190.208 15.9984 188 15.9984Z" fill="#1D1E25"/>
<path d="M195.847 5.59238C195.847 6.38926 195.2 7.03145 194.408 7.03145C193.611 7.03145 192.969 6.38457 192.969 5.59238C192.969 4.79551 193.616 4.15332 194.408 4.15332C195.2 4.15332 195.847 4.8002 195.847 5.59238Z" fill="#1D1E25"/>
</g>
<g clip-path="url(#clip2_266_7982)">
<path d="M246.223 0H225.772C224.792 0 224 0.773438 224 1.72969V22.2656C224 23.2219 224.792 24 225.772 24H246.223C247.203 24 248 23.2219 248 22.2703V1.72969C248 0.773438 247.203 0 246.223 0ZM231.12 20.4516H227.558V8.99531H231.12V20.4516ZM229.339 7.43438C228.195 7.43438 227.272 6.51094 227.272 5.37187C227.272 4.23281 228.195 3.30937 229.339 3.30937C230.478 3.30937 231.402 4.23281 231.402 5.37187C231.402 6.50625 230.478 7.43438 229.339 7.43438ZM244.452 20.4516H240.894V14.8828C240.894 13.5562 240.87 11.8453 239.042 11.8453C237.191 11.8453 236.909 13.2937 236.909 14.7891V20.4516H233.356V8.99531H236.769V10.5609H236.816C237.289 9.66094 238.452 8.70938 240.181 8.70938C243.786 8.70938 244.452 11.0813 244.452 14.1656V20.4516Z" fill="#1D1E25"/>
</g>
<path d="M1.11861 63V52.8182H4.74787C5.54001 52.8182 6.19626 52.9624 6.71662 53.2507C7.23698 53.5391 7.62642 53.9335 7.88494 54.4339C8.14347 54.9311 8.27273 55.4912 8.27273 56.1143C8.27273 56.7408 8.14181 57.3042 7.87997 57.8047C7.62145 58.3018 7.23035 58.6963 6.70668 58.9879C6.18632 59.2763 5.53172 59.4205 4.7429 59.4205H2.24716V58.1179H4.60369C5.10417 58.1179 5.51018 58.0317 5.82173 57.8594C6.13329 57.6837 6.36198 57.4451 6.50781 57.1435C6.65365 56.8419 6.72656 56.4988 6.72656 56.1143C6.72656 55.7299 6.65365 55.3885 6.50781 55.0902C6.36198 54.7919 6.13163 54.5582 5.81676 54.3892C5.50521 54.2202 5.09422 54.1357 4.58381 54.1357H2.65483V63H1.11861ZM9.95437 63V55.3636H11.3912V56.5767H11.4707C11.6099 56.1657 11.8552 55.8426 12.2065 55.6072C12.5611 55.3686 12.9622 55.2493 13.4096 55.2493C13.5024 55.2493 13.6118 55.2526 13.7377 55.2592C13.867 55.2659 13.9681 55.2741 14.041 55.2841V56.706C13.9814 56.6894 13.8753 56.6712 13.7228 56.6513C13.5704 56.6281 13.4179 56.6165 13.2654 56.6165C12.9141 56.6165 12.6009 56.6911 12.3258 56.8402C12.054 56.986 11.8386 57.1899 11.6795 57.4517C11.5204 57.7102 11.4409 58.0052 11.4409 58.3366V63H9.95437ZM15.3274 63V55.3636H16.8139V63H15.3274ZM16.0781 54.1854C15.8196 54.1854 15.5975 54.0992 15.4119 53.9268C15.2296 53.7512 15.1385 53.5424 15.1385 53.3004C15.1385 53.0552 15.2296 52.8464 15.4119 52.674C15.5975 52.4983 15.8196 52.4105 16.0781 52.4105C16.3366 52.4105 16.5571 52.4983 16.7393 52.674C16.925 52.8464 17.0178 53.0552 17.0178 53.3004C17.0178 53.5424 16.925 53.7512 16.7393 53.9268C16.5571 54.0992 16.3366 54.1854 16.0781 54.1854ZM25.3464 55.3636L22.5772 63H20.9863L18.2122 55.3636H19.8081L21.742 61.2401H21.8216L23.7505 55.3636H25.3464ZM28.747 63.169C28.2631 63.169 27.8256 63.0795 27.4345 62.9006C27.0434 62.7183 26.7335 62.4548 26.5048 62.1101C26.2794 61.7654 26.1667 61.3428 26.1667 60.8423C26.1667 60.4115 26.2496 60.0568 26.4153 59.7784C26.581 59.5 26.8047 59.2796 27.0865 59.1172C27.3682 58.9548 27.6831 58.8321 28.0311 58.7493C28.3791 58.6664 28.7337 58.6035 29.095 58.5604C29.5524 58.5073 29.9236 58.4643 30.2086 58.4311C30.4937 58.3946 30.7008 58.3366 30.8301 58.2571C30.9593 58.1776 31.024 58.0483 31.024 57.8693V57.8345C31.024 57.4003 30.9013 57.0639 30.6561 56.8253C30.4141 56.5866 30.0529 56.4673 29.5723 56.4673C29.0718 56.4673 28.6774 56.5784 28.389 56.8004C28.104 57.0192 27.9068 57.2628 27.7974 57.5312L26.4004 57.2131C26.5661 56.7491 26.8081 56.3745 27.1262 56.0895C27.4477 55.8011 27.8173 55.5923 28.2349 55.4631C28.6525 55.3305 29.0917 55.2642 29.5524 55.2642C29.8573 55.2642 30.1805 55.3007 30.5218 55.3736C30.8665 55.4432 31.188 55.5724 31.4863 55.7614C31.7879 55.9503 32.0349 56.2204 32.2271 56.5717C32.4193 56.9197 32.5154 57.3722 32.5154 57.929V63H31.0637V61.956H31.0041C30.908 62.1482 30.7638 62.3371 30.5716 62.5227C30.3793 62.7083 30.1324 62.8625 29.8308 62.9851C29.5292 63.1077 29.1679 63.169 28.747 63.169ZM29.0701 61.9759C29.4811 61.9759 29.8324 61.8946 30.1241 61.7322C30.4191 61.5698 30.6428 61.3577 30.7953 61.0959C30.9511 60.8307 31.0289 60.5473 31.0289 60.2457V59.2614C30.9759 59.3144 30.8732 59.3641 30.7207 59.4105C30.5716 59.4536 30.4009 59.4917 30.2086 59.5249C30.0164 59.5547 29.8291 59.5829 29.6468 59.6094C29.4645 59.6326 29.3121 59.6525 29.1895 59.669C28.9011 59.7055 28.6376 59.7668 28.399 59.853C28.1636 59.9392 27.9747 60.0634 27.8322 60.2259C27.693 60.3849 27.6234 60.5971 27.6234 60.8622C27.6234 61.2301 27.7593 61.5085 28.0311 61.6974C28.3029 61.883 28.6492 61.9759 29.0701 61.9759ZM37.712 63.1541C36.9729 63.1541 36.3365 62.9867 35.8029 62.652C35.2726 62.3139 34.8649 61.8482 34.5799 61.255C34.2949 60.6617 34.1523 59.9822 34.1523 59.2166C34.1523 58.4411 34.2982 57.7566 34.5898 57.1634C34.8815 56.5668 35.2925 56.1011 35.8228 55.7663C36.3531 55.4316 36.9779 55.2642 37.6971 55.2642C38.2771 55.2642 38.7942 55.3719 39.2482 55.5874C39.7023 55.7995 40.0685 56.0978 40.3469 56.4822C40.6287 56.8667 40.796 57.3158 40.8491 57.8295H39.4023C39.3228 57.4716 39.1405 57.1634 38.8555 56.9048C38.5737 56.6463 38.1959 56.517 37.7219 56.517C37.3076 56.517 36.9447 56.6264 36.6332 56.8452C36.3249 57.0606 36.0846 57.3688 35.9123 57.7699C35.7399 58.1676 35.6538 58.6383 35.6538 59.1818C35.6538 59.7386 35.7383 60.2192 35.9073 60.6236C36.0763 61.0279 36.315 61.3411 36.6232 61.5632C36.9348 61.7853 37.301 61.8963 37.7219 61.8963C38.0037 61.8963 38.2589 61.8449 38.4876 61.7422C38.7196 61.6361 38.9135 61.4853 39.0692 61.2898C39.2283 61.0942 39.3394 60.8589 39.4023 60.5838H40.8491C40.796 61.0777 40.6353 61.5185 40.3668 61.9062C40.0984 62.294 39.7388 62.599 39.288 62.821C38.8406 63.0431 38.3152 63.1541 37.712 63.1541ZM43.3784 65.8636C43.1563 65.8636 42.9541 65.8454 42.7718 65.8089C42.5895 65.7758 42.4537 65.7393 42.3642 65.6996L42.7221 64.4815C42.9939 64.5545 43.2359 64.5859 43.448 64.576C43.6601 64.5661 43.8474 64.4865 44.0098 64.3374C44.1755 64.1882 44.3213 63.9446 44.4473 63.6065L44.6312 63.0994L41.8372 55.3636H43.4281L45.362 61.2898H45.4416L47.3755 55.3636H48.9714L45.8244 64.0192C45.6786 64.4169 45.493 64.7533 45.2676 65.0284C45.0422 65.3068 44.7737 65.5156 44.4622 65.6548C44.1506 65.794 43.7894 65.8636 43.3784 65.8636ZM54.1928 63V52.8182H57.8221C58.6142 52.8182 59.2705 52.9624 59.7908 53.2507C60.3112 53.5391 60.7006 53.9335 60.9592 54.4339C61.2177 54.9311 61.3469 55.4912 61.3469 56.1143C61.3469 56.7408 61.216 57.3042 60.9542 57.8047C60.6957 58.3018 60.3046 58.6963 59.7809 58.9879C59.2605 59.2763 58.6059 59.4205 57.8171 59.4205H55.3214V58.1179H57.6779C58.1784 58.1179 58.5844 58.0317 58.896 57.8594C59.2075 57.6837 59.4362 57.4451 59.582 57.1435C59.7279 56.8419 59.8008 56.4988 59.8008 56.1143C59.8008 55.7299 59.7279 55.3885 59.582 55.0902C59.4362 54.7919 59.2058 54.5582 58.891 54.3892C58.5794 54.2202 58.1684 54.1357 57.658 54.1357H55.729V63H54.1928ZM66.1495 63.1541C65.4336 63.1541 64.8088 62.9901 64.2752 62.6619C63.7416 62.3338 63.3273 61.8748 63.0323 61.2848C62.7373 60.6948 62.5898 60.0054 62.5898 59.2166C62.5898 58.4245 62.7373 57.7318 63.0323 57.1385C63.3273 56.5452 63.7416 56.0845 64.2752 55.7564C64.8088 55.4283 65.4336 55.2642 66.1495 55.2642C66.8654 55.2642 67.4902 55.4283 68.0238 55.7564C68.5574 56.0845 68.9717 56.5452 69.2667 57.1385C69.5617 57.7318 69.7092 58.4245 69.7092 59.2166C69.7092 60.0054 69.5617 60.6948 69.2667 61.2848C68.9717 61.8748 68.5574 62.3338 68.0238 62.6619C67.4902 62.9901 66.8654 63.1541 66.1495 63.1541ZM66.1545 61.9062C66.6185 61.9062 67.003 61.7836 67.3079 61.5384C67.6128 61.2931 67.8382 60.9666 67.984 60.5589C68.1332 60.1513 68.2077 59.7022 68.2077 59.2116C68.2077 58.7244 68.1332 58.277 67.984 57.8693C67.8382 57.4583 67.6128 57.1286 67.3079 56.88C67.003 56.6314 66.6185 56.5071 66.1545 56.5071C65.6871 56.5071 65.2994 56.6314 64.9911 56.88C64.6862 57.1286 64.4592 57.4583 64.31 57.8693C64.1642 58.277 64.0913 58.7244 64.0913 59.2116C64.0913 59.7022 64.1642 60.1513 64.31 60.5589C64.4592 60.9666 64.6862 61.2931 64.9911 61.5384C65.2994 61.7836 65.6871 61.9062 66.1545 61.9062ZM72.8549 52.8182V63H71.3684V52.8182H72.8549ZM74.8548 63V55.3636H76.3413V63H74.8548ZM75.6055 54.1854C75.3469 54.1854 75.1249 54.0992 74.9393 53.9268C74.757 53.7512 74.6658 53.5424 74.6658 53.3004C74.6658 53.0552 74.757 52.8464 74.9393 52.674C75.1249 52.4983 75.3469 52.4105 75.6055 52.4105C75.864 52.4105 76.0844 52.4983 76.2667 52.674C76.4523 52.8464 76.5451 53.0552 76.5451 53.3004C76.5451 53.5424 76.4523 53.7512 76.2667 53.9268C76.0844 54.0992 75.864 54.1854 75.6055 54.1854ZM81.5577 63.1541C80.8186 63.1541 80.1822 62.9867 79.6486 62.652C79.1183 62.3139 78.7106 61.8482 78.4256 61.255C78.1406 60.6617 77.998 59.9822 77.998 59.2166C77.998 58.4411 78.1439 57.7566 78.4355 57.1634C78.7272 56.5668 79.1382 56.1011 79.6685 55.7663C80.1988 55.4316 80.8236 55.2642 81.5428 55.2642C82.1228 55.2642 82.6399 55.3719 83.0939 55.5874C83.548 55.7995 83.9142 56.0978 84.1926 56.4822C84.4744 56.8667 84.6417 57.3158 84.6948 57.8295H83.248C83.1685 57.4716 82.9862 57.1634 82.7012 56.9048C82.4194 56.6463 82.0416 56.517 81.5676 56.517C81.1534 56.517 80.7904 56.6264 80.4789 56.8452C80.1706 57.0606 79.9303 57.3688 79.758 57.7699C79.5856 58.1676 79.4995 58.6383 79.4995 59.1818C79.4995 59.7386 79.584 60.2192 79.753 60.6236C79.9221 61.0279 80.1607 61.3411 80.4689 61.5632C80.7805 61.7853 81.1467 61.8963 81.5676 61.8963C81.8494 61.8963 82.1046 61.8449 82.3333 61.7422C82.5653 61.6361 82.7592 61.4853 82.915 61.2898C83.074 61.0942 83.1851 60.8589 83.248 60.5838H84.6948C84.6417 61.0777 84.481 61.5185 84.2125 61.9062C83.9441 62.294 83.5845 62.599 83.1337 62.821C82.6863 63.0431 82.1609 63.1541 81.5577 63.1541ZM87.2241 65.8636C87.002 65.8636 86.7998 65.8454 86.6175 65.8089C86.4353 65.7758 86.2994 65.7393 86.2099 65.6996L86.5678 64.4815C86.8396 64.5545 87.0816 64.5859 87.2937 64.576C87.5058 64.5661 87.6931 64.4865 87.8555 64.3374C88.0212 64.1882 88.167 63.9446 88.293 63.6065L88.4769 63.0994L85.6829 55.3636H87.2738L89.2077 61.2898H89.2873L91.2212 55.3636H92.8171L89.6701 64.0192C89.5243 64.4169 89.3387 64.7533 89.1133 65.0284C88.8879 65.3068 88.6194 65.5156 88.3079 65.6548C87.9963 65.794 87.6351 65.8636 87.2241 65.8636Z" fill="#7E8492"/>
<path d="M118.616 54.1406V52.8182H126.496V54.1406H123.32V63H121.788V54.1406H118.616ZM130.302 63.1541C129.55 63.1541 128.902 62.9934 128.358 62.6719C127.818 62.3471 127.4 61.8913 127.105 61.3047C126.814 60.7147 126.668 60.0237 126.668 59.2315C126.668 58.4493 126.814 57.7599 127.105 57.1634C127.4 56.5668 127.811 56.1011 128.338 55.7663C128.869 55.4316 129.489 55.2642 130.198 55.2642C130.629 55.2642 131.046 55.3355 131.451 55.478C131.855 55.6205 132.218 55.8442 132.539 56.1491C132.861 56.4541 133.114 56.8501 133.3 57.3374C133.486 57.8213 133.578 58.4096 133.578 59.1023V59.6293H127.508V58.5156H132.122C132.122 58.1245 132.042 57.7782 131.883 57.4766C131.724 57.1716 131.5 56.9313 131.212 56.7557C130.927 56.58 130.592 56.4922 130.208 56.4922C129.79 56.4922 129.426 56.5949 129.114 56.8004C128.806 57.0026 128.567 57.2678 128.398 57.5959C128.232 57.9207 128.15 58.2737 128.15 58.6548V59.5249C128.15 60.0353 128.239 60.4695 128.418 60.8274C128.6 61.1854 128.854 61.4588 129.179 61.6477C129.503 61.8333 129.883 61.9261 130.317 61.9261C130.599 61.9261 130.856 61.8864 131.088 61.8068C131.32 61.724 131.52 61.6013 131.689 61.4389C131.858 61.2765 131.988 61.076 132.077 60.8374L133.484 61.0909C133.371 61.5052 133.169 61.8681 132.877 62.1797C132.589 62.4879 132.226 62.7282 131.789 62.9006C131.355 63.0696 130.859 63.1541 130.302 63.1541ZM135.228 63V55.3636H136.665V56.5767H136.744C136.883 56.1657 137.129 55.8426 137.48 55.6072C137.835 55.3686 138.236 55.2493 138.683 55.2493C138.776 55.2493 138.885 55.2526 139.011 55.2592C139.14 55.2659 139.242 55.2741 139.314 55.2841V56.706C139.255 56.6894 139.149 56.6712 138.996 56.6513C138.844 56.6281 138.691 56.6165 138.539 56.6165C138.188 56.6165 137.874 56.6911 137.599 56.8402C137.327 56.986 137.112 57.1899 136.953 57.4517C136.794 57.7102 136.714 58.0052 136.714 58.3366V63H135.228ZM140.601 63V55.3636H142.028V56.6065H142.122C142.281 56.1856 142.541 55.8575 142.903 55.6222C143.264 55.3835 143.696 55.2642 144.2 55.2642C144.711 55.2642 145.138 55.3835 145.483 55.6222C145.831 55.8608 146.088 56.1889 146.254 56.6065H146.333C146.515 56.1989 146.805 55.8741 147.203 55.6321C147.601 55.3868 148.075 55.2642 148.625 55.2642C149.318 55.2642 149.883 55.4813 150.32 55.9155C150.761 56.3497 150.982 57.0043 150.982 57.8793V63H149.495V58.0185C149.495 57.5014 149.354 57.1269 149.072 56.8949C148.791 56.6629 148.454 56.5469 148.063 56.5469C147.579 56.5469 147.203 56.696 146.935 56.9943C146.666 57.2893 146.532 57.6688 146.532 58.1328V63H145.05V57.924C145.05 57.5097 144.921 57.1766 144.663 56.9247C144.404 56.6728 144.068 56.5469 143.653 56.5469C143.372 56.5469 143.112 56.6214 142.873 56.7706C142.638 56.9164 142.447 57.1203 142.301 57.3821C142.159 57.6439 142.087 57.9472 142.087 58.2919V63H140.601ZM158.696 57.228L157.349 57.4666C157.293 57.2943 157.203 57.1302 157.08 56.9744C156.961 56.8187 156.799 56.6911 156.593 56.5916C156.388 56.4922 156.131 56.4425 155.823 56.4425C155.402 56.4425 155.05 56.5369 154.769 56.7259C154.487 56.9115 154.346 57.1518 154.346 57.4467C154.346 57.7019 154.441 57.9074 154.629 58.0632C154.818 58.219 155.123 58.3466 155.544 58.446L156.757 58.7244C157.46 58.8868 157.984 59.1371 158.328 59.4751C158.673 59.8132 158.845 60.2524 158.845 60.7926C158.845 61.25 158.713 61.6577 158.448 62.0156C158.186 62.3703 157.82 62.6487 157.349 62.8509C156.882 63.053 156.34 63.1541 155.723 63.1541C154.868 63.1541 154.17 62.9718 153.63 62.6072C153.09 62.2393 152.758 61.7173 152.636 61.0412L154.073 60.8224C154.162 61.197 154.346 61.4804 154.624 61.6726C154.903 61.8615 155.266 61.956 155.713 61.956C156.2 61.956 156.59 61.8549 156.882 61.6527C157.173 61.4472 157.319 61.197 157.319 60.902C157.319 60.6634 157.23 60.4628 157.051 60.3004C156.875 60.138 156.605 60.0154 156.24 59.9325L154.948 59.6491C154.235 59.4867 153.708 59.2282 153.367 58.8736C153.029 58.5189 152.86 58.0698 152.86 57.5263C152.86 57.0755 152.985 56.6811 153.237 56.343C153.489 56.005 153.837 55.7415 154.281 55.5526C154.726 55.3603 155.234 55.2642 155.808 55.2642C156.633 55.2642 157.283 55.4432 157.757 55.8011C158.231 56.1558 158.544 56.6314 158.696 57.228ZM167.148 63.1442C166.465 63.1442 165.877 63.0199 165.383 62.7713C164.892 62.5227 164.515 62.1847 164.249 61.7571C163.984 61.3262 163.852 60.839 163.852 60.2955C163.852 59.8812 163.938 59.5133 164.11 59.1918C164.283 58.867 164.523 58.567 164.831 58.2919C165.139 58.0168 165.496 57.7401 165.9 57.4616L167.541 56.3033C167.819 56.121 168.036 55.9287 168.192 55.7266C168.348 55.5211 168.426 55.2675 168.426 54.9659C168.426 54.7273 168.323 54.4986 168.117 54.2798C167.912 54.0611 167.637 53.9517 167.292 53.9517C167.053 53.9517 166.843 54.0097 166.661 54.1257C166.482 54.2417 166.341 54.3909 166.238 54.5732C166.139 54.7521 166.089 54.9411 166.089 55.1399C166.089 55.3719 166.152 55.6056 166.278 55.8409C166.407 56.0762 166.573 56.3198 166.775 56.5717C166.977 56.8203 167.189 57.0788 167.411 57.3473L172.139 63H170.459L166.546 58.4013C166.218 58.0135 165.913 57.6489 165.632 57.3075C165.35 56.9628 165.121 56.6148 164.945 56.2635C164.773 55.9089 164.687 55.526 164.687 55.1151C164.687 54.6477 164.793 54.2334 165.005 53.8722C165.221 53.5076 165.521 53.2225 165.905 53.017C166.289 52.8116 166.74 52.7088 167.257 52.7088C167.781 52.7088 168.23 52.8116 168.605 53.017C168.982 53.2192 169.272 53.4893 169.475 53.8274C169.68 54.1622 169.783 54.5284 169.783 54.9261C169.783 55.41 169.662 55.8376 169.42 56.2088C169.181 56.5767 168.852 56.9148 168.431 57.223L166.387 58.7294C165.99 59.0211 165.713 59.3094 165.557 59.5945C165.405 59.8762 165.328 60.0966 165.328 60.2557C165.328 60.5473 165.403 60.8175 165.552 61.0661C165.704 61.3146 165.917 61.5135 166.188 61.6626C166.463 61.8118 166.785 61.8864 167.153 61.8864C167.531 61.8864 167.899 61.8052 168.257 61.6428C168.618 61.477 168.944 61.2401 169.236 60.9318C169.531 60.6236 169.765 60.254 169.937 59.8232C170.109 59.3923 170.195 58.91 170.195 58.3764H171.538C171.538 59.0327 171.463 59.5878 171.314 60.0419C171.165 60.4927 170.984 60.8606 170.772 61.1456C170.563 61.4273 170.366 61.6477 170.181 61.8068C170.121 61.8598 170.065 61.9129 170.012 61.9659C169.959 62.0189 169.902 62.072 169.843 62.125C169.498 62.473 169.08 62.7299 168.59 62.8956C168.102 63.0613 167.622 63.1442 167.148 63.1442ZM185.585 56.1293H184.034C183.974 55.7978 183.863 55.5062 183.701 55.2543C183.538 55.0024 183.34 54.7886 183.104 54.6129C182.869 54.4373 182.605 54.3047 182.314 54.2152C182.025 54.1257 181.719 54.081 181.394 54.081C180.807 54.081 180.282 54.2285 179.818 54.5234C179.357 54.8184 178.993 55.2509 178.724 55.821C178.459 56.3911 178.327 57.0871 178.327 57.9091C178.327 58.7377 178.459 59.437 178.724 60.0071C178.993 60.5772 179.359 61.008 179.823 61.2997C180.287 61.5914 180.809 61.7372 181.389 61.7372C181.711 61.7372 182.015 61.6941 182.304 61.608C182.595 61.5185 182.859 61.3875 183.094 61.2152C183.33 61.0429 183.528 60.8324 183.691 60.5838C183.857 60.3319 183.971 60.0436 184.034 59.7188L185.585 59.7237C185.502 60.2242 185.341 60.6849 185.103 61.1058C184.867 61.5234 184.564 61.8847 184.193 62.1896C183.825 62.4912 183.404 62.7249 182.93 62.8906C182.456 63.0563 181.939 63.1392 181.379 63.1392C180.497 63.1392 179.712 62.9304 179.023 62.5128C178.333 62.0919 177.79 61.4903 177.392 60.7081C176.997 59.9259 176.8 58.9929 176.8 57.9091C176.8 56.822 176.999 55.889 177.397 55.1101C177.795 54.3279 178.338 53.728 179.028 53.3104C179.717 52.8894 180.501 52.679 181.379 52.679C181.919 52.679 182.423 52.7569 182.89 52.9126C183.361 53.0651 183.784 53.2905 184.158 53.5888C184.533 53.8838 184.843 54.245 185.088 54.6726C185.333 55.0968 185.499 55.5824 185.585 56.1293ZM190.521 63.1541C189.805 63.1541 189.18 62.9901 188.646 62.6619C188.113 62.3338 187.698 61.8748 187.403 61.2848C187.108 60.6948 186.961 60.0054 186.961 59.2166C186.961 58.4245 187.108 57.7318 187.403 57.1385C187.698 56.5452 188.113 56.0845 188.646 55.7564C189.18 55.4283 189.805 55.2642 190.521 55.2642C191.237 55.2642 191.861 55.4283 192.395 55.7564C192.929 56.0845 193.343 56.5452 193.638 57.1385C193.933 57.7318 194.08 58.4245 194.08 59.2166C194.08 60.0054 193.933 60.6948 193.638 61.2848C193.343 61.8748 192.929 62.3338 192.395 62.6619C191.861 62.9901 191.237 63.1541 190.521 63.1541ZM190.526 61.9062C190.99 61.9062 191.374 61.7836 191.679 61.5384C191.984 61.2931 192.209 60.9666 192.355 60.5589C192.504 60.1513 192.579 59.7022 192.579 59.2116C192.579 58.7244 192.504 58.277 192.355 57.8693C192.209 57.4583 191.984 57.1286 191.679 56.88C191.374 56.6314 190.99 56.5071 190.526 56.5071C190.058 56.5071 189.67 56.6314 189.362 56.88C189.057 57.1286 188.83 57.4583 188.681 57.8693C188.535 58.277 188.462 58.7244 188.462 59.2116C188.462 59.7022 188.535 60.1513 188.681 60.5589C188.83 60.9666 189.057 61.2931 189.362 61.5384C189.67 61.7836 190.058 61.9062 190.526 61.9062ZM197.226 58.4659V63H195.74V55.3636H197.166V56.6065H197.261C197.436 56.2022 197.712 55.8774 198.086 55.6321C198.464 55.3868 198.94 55.2642 199.513 55.2642C200.033 55.2642 200.489 55.3736 200.88 55.5923C201.271 55.8078 201.575 56.1293 201.79 56.5568C202.005 56.9844 202.113 57.513 202.113 58.1428V63H200.627V58.3217C200.627 57.7682 200.482 57.3357 200.194 57.0241C199.906 56.7093 199.51 56.5518 199.006 56.5518C198.661 56.5518 198.355 56.6264 198.086 56.7756C197.821 56.9247 197.61 57.1435 197.455 57.4318C197.302 57.7169 197.226 58.0616 197.226 58.4659ZM206.965 63.1491C206.349 63.1491 205.799 62.9917 205.315 62.6768C204.834 62.3587 204.456 61.9062 204.181 61.3196C203.91 60.7296 203.774 60.022 203.774 59.1967C203.774 58.3714 203.911 57.6655 204.186 57.0788C204.465 56.4922 204.846 56.0431 205.33 55.7315C205.814 55.42 206.362 55.2642 206.975 55.2642C207.449 55.2642 207.83 55.3438 208.119 55.5028C208.41 55.6586 208.636 55.8409 208.795 56.0497C208.957 56.2585 209.083 56.4425 209.173 56.6016H209.262V52.8182H210.749V63H209.297V61.8118H209.173C209.083 61.9742 208.954 62.1598 208.785 62.3686C208.619 62.5774 208.391 62.7597 208.099 62.9155C207.807 63.0713 207.429 63.1491 206.965 63.1491ZM207.294 61.8814C207.721 61.8814 208.082 61.7687 208.377 61.5433C208.676 61.3146 208.901 60.9981 209.053 60.5938C209.209 60.1894 209.287 59.7187 209.287 59.1818C209.287 58.6515 209.211 58.1875 209.058 57.7898C208.906 57.392 208.682 57.0821 208.387 56.8601C208.092 56.638 207.728 56.527 207.294 56.527C206.846 56.527 206.473 56.643 206.175 56.875C205.877 57.107 205.651 57.4235 205.499 57.8246C205.35 58.2256 205.275 58.678 205.275 59.1818C205.275 59.6922 205.351 60.1513 205.504 60.5589C205.656 60.9666 205.882 61.2898 206.18 61.5284C206.481 61.7637 206.853 61.8814 207.294 61.8814ZM212.87 63V55.3636H214.357V63H212.87ZM213.621 54.1854C213.363 54.1854 213.141 54.0992 212.955 53.9268C212.773 53.7512 212.681 53.5424 212.681 53.3004C212.681 53.0552 212.773 52.8464 212.955 52.674C213.141 52.4983 213.363 52.4105 213.621 52.4105C213.88 52.4105 214.1 52.4983 214.282 52.674C214.468 52.8464 214.561 53.0552 214.561 53.3004C214.561 53.5424 214.468 53.7512 214.282 53.9268C214.1 54.0992 213.88 54.1854 213.621 54.1854ZM219.921 55.3636V56.5568H215.75V55.3636H219.921ZM216.869 53.5341H218.355V60.7578C218.355 61.0462 218.398 61.2633 218.485 61.4091C218.571 61.5516 218.682 61.6494 218.818 61.7024C218.957 61.7521 219.108 61.777 219.27 61.777C219.389 61.777 219.494 61.7687 219.583 61.7521C219.673 61.7356 219.742 61.7223 219.792 61.7124L220.061 62.9403C219.974 62.9735 219.852 63.0066 219.693 63.0398C219.534 63.0762 219.335 63.0961 219.096 63.0994C218.705 63.1061 218.34 63.0365 218.002 62.8906C217.664 62.7448 217.391 62.5194 217.182 62.2145C216.973 61.9096 216.869 61.5268 216.869 61.0661V53.5341ZM221.566 63V55.3636H223.052V63H221.566ZM222.316 54.1854C222.058 54.1854 221.836 54.0992 221.65 53.9268C221.468 53.7512 221.377 53.5424 221.377 53.3004C221.377 53.0552 221.468 52.8464 221.65 52.674C221.836 52.4983 222.058 52.4105 222.316 52.4105C222.575 52.4105 222.795 52.4983 222.978 52.674C223.163 52.8464 223.256 53.0552 223.256 53.3004C223.256 53.5424 223.163 53.7512 222.978 53.9268C222.795 54.0992 222.575 54.1854 222.316 54.1854ZM228.269 63.1541C227.553 63.1541 226.928 62.9901 226.394 62.6619C225.861 62.3338 225.446 61.8748 225.151 61.2848C224.856 60.6948 224.709 60.0054 224.709 59.2166C224.709 58.4245 224.856 57.7318 225.151 57.1385C225.446 56.5452 225.861 56.0845 226.394 55.7564C226.928 55.4283 227.553 55.2642 228.269 55.2642C228.985 55.2642 229.609 55.4283 230.143 55.7564C230.677 56.0845 231.091 56.5452 231.386 57.1385C231.681 57.7318 231.828 58.4245 231.828 59.2166C231.828 60.0054 231.681 60.6948 231.386 61.2848C231.091 61.8748 230.677 62.3338 230.143 62.6619C229.609 62.9901 228.985 63.1541 228.269 63.1541ZM228.274 61.9062C228.738 61.9062 229.122 61.7836 229.427 61.5384C229.732 61.2931 229.957 60.9666 230.103 60.5589C230.252 60.1513 230.327 59.7022 230.327 59.2116C230.327 58.7244 230.252 58.277 230.103 57.8693C229.957 57.4583 229.732 57.1286 229.427 56.88C229.122 56.6314 228.738 56.5071 228.274 56.5071C227.806 56.5071 227.419 56.6314 227.11 56.88C226.805 57.1286 226.578 57.4583 226.429 57.8693C226.283 58.277 226.21 58.7244 226.21 59.2116C226.21 59.7022 226.283 60.1513 226.429 60.5589C226.578 60.9666 226.805 61.2931 227.11 61.5384C227.419 61.7836 227.806 61.9062 228.274 61.9062ZM234.974 58.4659V63H233.488V55.3636H234.914V56.6065H235.009C235.185 56.2022 235.46 55.8774 235.834 55.6321C236.212 55.3868 236.688 55.2642 237.261 55.2642C237.781 55.2642 238.237 55.3736 238.628 55.5923C239.019 55.8078 239.323 56.1293 239.538 56.5568C239.753 56.9844 239.861 57.513 239.861 58.1428V63H238.375V58.3217C238.375 57.7682 238.23 57.3357 237.942 57.0241C237.654 56.7093 237.258 56.5518 236.754 56.5518C236.409 56.5518 236.103 56.6264 235.834 56.7756C235.569 56.9247 235.359 57.1435 235.203 57.4318C235.05 57.7169 234.974 58.0616 234.974 58.4659ZM247.577 57.228L246.23 57.4666C246.173 57.2943 246.084 57.1302 245.961 56.9744C245.842 56.8187 245.68 56.6911 245.474 56.5916C245.269 56.4922 245.012 56.4425 244.703 56.4425C244.283 56.4425 243.931 56.5369 243.65 56.7259C243.368 56.9115 243.227 57.1518 243.227 57.4467C243.227 57.7019 243.321 57.9074 243.51 58.0632C243.699 58.219 244.004 58.3466 244.425 58.446L245.638 58.7244C246.341 58.8868 246.864 59.1371 247.209 59.4751C247.554 59.8132 247.726 60.2524 247.726 60.7926C247.726 61.25 247.594 61.6577 247.328 62.0156C247.067 62.3703 246.7 62.6487 246.23 62.8509C245.762 63.053 245.221 63.1541 244.604 63.1541C243.749 63.1541 243.051 62.9718 242.511 62.6072C241.971 62.2393 241.639 61.7173 241.517 61.0412L242.953 60.8224C243.043 61.197 243.227 61.4804 243.505 61.6726C243.784 61.8615 244.147 61.956 244.594 61.956C245.081 61.956 245.471 61.8549 245.762 61.6527C246.054 61.4472 246.2 61.197 246.2 60.902C246.2 60.6634 246.11 60.4628 245.931 60.3004C245.756 60.138 245.486 60.0154 245.121 59.9325L243.828 59.6491C243.116 59.4867 242.589 59.2282 242.248 58.8736C241.909 58.5189 241.74 58.0698 241.74 57.5263C241.74 57.0755 241.866 56.6811 242.118 56.343C242.37 56.005 242.718 55.7415 243.162 55.5526C243.606 55.3603 244.115 55.2642 244.689 55.2642C245.514 55.2642 246.163 55.4432 246.637 55.8011C247.111 56.1558 247.425 56.6314 247.577 57.228Z" fill="#7E8492"/>
<path d="M279.672 55.4929C279.619 55.0223 279.4 54.6577 279.016 54.3991C278.631 54.1373 278.147 54.0064 277.564 54.0064C277.146 54.0064 276.785 54.0727 276.48 54.2053C276.175 54.3345 275.938 54.5135 275.769 54.7422C275.603 54.9676 275.521 55.2244 275.521 55.5128C275.521 55.7547 275.577 55.9635 275.69 56.1392C275.806 56.3149 275.956 56.4624 276.142 56.5817C276.331 56.6977 276.533 56.7955 276.749 56.875C276.964 56.9512 277.171 57.0142 277.37 57.0639L278.364 57.3224C278.689 57.402 279.022 57.5097 279.364 57.6456C279.705 57.7815 280.022 57.9605 280.313 58.1825C280.605 58.4046 280.84 58.6797 281.019 59.0078C281.201 59.3359 281.293 59.7287 281.293 60.1861C281.293 60.7628 281.143 61.2749 280.845 61.7223C280.55 62.1697 280.121 62.5227 279.558 62.7812C278.997 63.0398 278.32 63.169 277.524 63.169C276.762 63.169 276.102 63.0481 275.545 62.8061C274.989 62.5642 274.553 62.2211 274.238 61.777C273.923 61.3295 273.749 60.7992 273.716 60.1861H275.257C275.287 60.554 275.406 60.8606 275.615 61.1058C275.827 61.3478 276.097 61.5284 276.425 61.6477C276.757 61.7637 277.12 61.8217 277.514 61.8217C277.948 61.8217 278.335 61.7538 278.673 61.6179C279.014 61.4787 279.282 61.2865 279.478 61.0412C279.674 60.7926 279.771 60.5026 279.771 60.1712C279.771 59.8696 279.685 59.6226 279.513 59.4304C279.344 59.2382 279.113 59.0791 278.822 58.9531C278.533 58.8272 278.207 58.7161 277.842 58.62L276.639 58.2919C275.824 58.0698 275.178 57.7434 274.7 57.3125C274.226 56.8816 273.989 56.3116 273.989 55.6023C273.989 55.0156 274.148 54.5036 274.467 54.0661C274.785 53.6286 275.216 53.2888 275.759 53.0469C276.303 52.8016 276.916 52.679 277.599 52.679C278.288 52.679 278.896 52.8 279.423 53.0419C279.954 53.2839 280.371 53.617 280.676 54.0412C280.981 54.4621 281.14 54.946 281.153 55.4929H279.672ZM287.846 59.8331V55.3636H289.338V63H287.876V61.6776H287.797C287.621 62.0852 287.339 62.425 286.952 62.6967C286.567 62.9652 286.088 63.0994 285.515 63.0994C285.024 63.0994 284.59 62.9917 284.212 62.7763C283.838 62.5575 283.543 62.2344 283.327 61.8068C283.115 61.3793 283.009 60.8506 283.009 60.2209V55.3636H284.496V60.0419C284.496 60.5623 284.64 60.9766 284.928 61.2848C285.216 61.593 285.591 61.7472 286.052 61.7472C286.33 61.7472 286.607 61.6776 286.882 61.5384C287.16 61.3991 287.391 61.1887 287.573 60.907C287.759 60.6252 287.85 60.2673 287.846 59.8331ZM291.335 65.8636V55.3636H292.787V56.6016H292.911C292.997 56.4425 293.122 56.2585 293.284 56.0497C293.446 55.8409 293.672 55.6586 293.96 55.5028C294.249 55.3438 294.63 55.2642 295.104 55.2642C295.72 55.2642 296.27 55.42 296.754 55.7315C297.238 56.0431 297.618 56.4922 297.893 57.0788C298.171 57.6655 298.31 58.3714 298.31 59.1967C298.31 60.022 298.173 60.7296 297.898 61.3196C297.623 61.9062 297.245 62.3587 296.764 62.6768C296.284 62.9917 295.735 63.1491 295.119 63.1491C294.655 63.1491 294.275 63.0713 293.98 62.9155C293.688 62.7597 293.46 62.5774 293.294 62.3686C293.128 62.1598 293.001 61.9742 292.911 61.8118H292.822V65.8636H291.335ZM292.792 59.1818C292.792 59.7187 292.87 60.1894 293.026 60.5938C293.181 60.9981 293.407 61.3146 293.702 61.5433C293.997 61.7687 294.358 61.8814 294.786 61.8814C295.23 61.8814 295.601 61.7637 295.899 61.5284C296.197 61.2898 296.423 60.9666 296.575 60.5589C296.731 60.1513 296.809 59.6922 296.809 59.1818C296.809 58.678 296.733 58.2256 296.58 57.8246C296.431 57.4235 296.206 57.107 295.904 56.875C295.606 56.643 295.233 56.527 294.786 56.527C294.355 56.527 293.99 56.638 293.692 56.8601C293.397 57.0821 293.173 57.392 293.021 57.7898C292.868 58.1875 292.792 58.6515 292.792 59.1818ZM299.976 65.8636V55.3636H301.428V56.6016H301.552C301.638 56.4425 301.762 56.2585 301.925 56.0497C302.087 55.8409 302.313 55.6586 302.601 55.5028C302.889 55.3438 303.27 55.2642 303.744 55.2642C304.361 55.2642 304.911 55.42 305.395 55.7315C305.879 56.0431 306.258 56.4922 306.533 57.0788C306.812 57.6655 306.951 58.3714 306.951 59.1967C306.951 60.022 306.813 60.7296 306.538 61.3196C306.263 61.9062 305.885 62.3587 305.405 62.6768C304.924 62.9917 304.376 63.1491 303.759 63.1491C303.295 63.1491 302.916 63.0713 302.621 62.9155C302.329 62.7597 302.1 62.5774 301.935 62.3686C301.769 62.1598 301.641 61.9742 301.552 61.8118H301.462V65.8636H299.976ZM301.433 59.1818C301.433 59.7187 301.51 60.1894 301.666 60.5938C301.822 60.9981 302.047 61.3146 302.342 61.5433C302.637 61.7687 302.999 61.8814 303.426 61.8814C303.87 61.8814 304.241 61.7637 304.54 61.5284C304.838 61.2898 305.063 60.9666 305.216 60.5589C305.372 60.1513 305.45 59.6922 305.45 59.1818C305.45 58.678 305.373 58.2256 305.221 57.8246C305.072 57.4235 304.846 57.107 304.545 56.875C304.246 56.643 303.874 56.527 303.426 56.527C302.995 56.527 302.631 56.638 302.332 56.8601C302.037 57.0821 301.814 57.392 301.661 57.7898C301.509 58.1875 301.433 58.6515 301.433 59.1818ZM311.833 63.1541C311.117 63.1541 310.492 62.9901 309.959 62.6619C309.425 62.3338 309.011 61.8748 308.716 61.2848C308.421 60.6948 308.273 60.0054 308.273 59.2166C308.273 58.4245 308.421 57.7318 308.716 57.1385C309.011 56.5452 309.425 56.0845 309.959 55.7564C310.492 55.4283 311.117 55.2642 311.833 55.2642C312.549 55.2642 313.174 55.4283 313.707 55.7564C314.241 56.0845 314.655 56.5452 314.95 57.1385C315.245 57.7318 315.393 58.4245 315.393 59.2166C315.393 60.0054 315.245 60.6948 314.95 61.2848C314.655 61.8748 314.241 62.3338 313.707 62.6619C313.174 62.9901 312.549 63.1541 311.833 63.1541ZM311.838 61.9062C312.302 61.9062 312.687 61.7836 312.991 61.5384C313.296 61.2931 313.522 60.9666 313.668 60.5589C313.817 60.1513 313.891 59.7022 313.891 59.2116C313.891 58.7244 313.817 58.277 313.668 57.8693C313.522 57.4583 313.296 57.1286 312.991 56.88C312.687 56.6314 312.302 56.5071 311.838 56.5071C311.371 56.5071 310.983 56.6314 310.675 56.88C310.37 57.1286 310.143 57.4583 309.994 57.8693C309.848 58.277 309.775 58.7244 309.775 59.2116C309.775 59.7022 309.848 60.1513 309.994 60.5589C310.143 60.9666 310.37 61.2931 310.675 61.5384C310.983 61.7836 311.371 61.9062 311.838 61.9062ZM317.052 63V55.3636H318.489V56.5767H318.568C318.708 56.1657 318.953 55.8426 319.304 55.6072C319.659 55.3686 320.06 55.2493 320.507 55.2493C320.6 55.2493 320.709 55.2526 320.835 55.2592C320.965 55.2659 321.066 55.2741 321.139 55.2841V56.706C321.079 56.6894 320.973 56.6712 320.82 56.6513C320.668 56.6281 320.516 56.6165 320.363 56.6165C320.012 56.6165 319.699 56.6911 319.423 56.8402C319.152 56.986 318.936 57.1899 318.777 57.4517C318.618 57.7102 318.539 58.0052 318.539 58.3366V63H317.052ZM326.441 55.3636V56.5568H322.27V55.3636H326.441ZM323.388 53.5341H324.875V60.7578C324.875 61.0462 324.918 61.2633 325.004 61.4091C325.09 61.5516 325.201 61.6494 325.337 61.7024C325.476 61.7521 325.627 61.777 325.79 61.777C325.909 61.777 326.013 61.7687 326.103 61.7521C326.192 61.7356 326.262 61.7223 326.312 61.7124L326.58 62.9403C326.494 62.9735 326.371 63.0066 326.212 63.0398C326.053 63.0762 325.854 63.0961 325.616 63.0994C325.224 63.1061 324.86 63.0365 324.522 62.8906C324.184 62.7448 323.91 62.5194 323.702 62.2145C323.493 61.9096 323.388 61.5268 323.388 61.0661V53.5341Z" fill="#7E8492"/>
<defs>
<clipPath id="clip0_266_7982">
<rect width="24" height="24" fill="white" transform="translate(80)"/>
</clipPath>
<clipPath id="clip1_266_7982">
<rect width="24" height="24" fill="white" transform="translate(176)"/>
</clipPath>
<clipPath id="clip2_266_7982">
<rect width="24" height="24" fill="white" transform="translate(224)"/>
</clipPath>
</defs>
</svg>
